<?xml version="1.0" encoding="iso-8859-1"?>
<!-- Generator: Adobe Illustrator 22.1.0, SVG Export Plug-In . SVG Version: 6.00 Build 0)  -->
<svg version="1.1" id="Layer_1" xmlns="http://www.w3.org/2000/svg" xmlns:xlink="http://www.w3.org/1999/xlink" x="0px" y="0px"
	 viewBox="0 0 1064.769 1064.769" style="enable-background:new 0 0 1064.769 1064.769;" xml:space="preserve">
<linearGradient id="SVGID_1_" gradientUnits="userSpaceOnUse" x1="64.9165" y1="532.3846" x2="999.8527" y2="532.3846">
	<stop  offset="0" style="stop-color:#69B5E5"/>
	<stop  offset="1" style="stop-color:#165BA5"/>
</linearGradient>
<path style="fill:url(#SVGID_1_);" d="M532.385,93.41c-12.158,0-24.178,0.566-36.094,1.506l155.001,155.001
	c125.196,47.914,214.233,168.917,214.233,310.961c0,183.986-149.153,333.14-333.139,333.14s-333.14-149.153-333.14-333.14
	c0-141.427,88.17-262.181,212.506-310.523l218.954,219.248c22.264,23.971,36.011,55.975,36.011,91.275
	c0,74.188-60.144,134.332-134.332,134.332s-134.332-60.144-134.332-134.332s60.144-134.332,134.332-134.332
	c1.969,0,3.882,0.207,5.83,0.29l-112.227-112.22c-95.375,41.202-162.264,135.755-162.264,246.262
	c0,148.376,120.285,268.661,268.661,268.661s268.661-120.285,268.661-268.661c0-72.302-28.706-137.796-75.162-186.09l0.183-0.183
	l-0.014-0.014L387.78,36.423c-47.306,13.015-92.028,32.198-133.237,56.728l56.117,56.117
	C164.346,228.25,64.917,382.94,64.917,560.878c0,258.178,209.29,467.468,467.468,467.468s467.468-209.29,467.468-467.468
	S790.562,93.41,532.385,93.41z"/>
</svg>
